<svg width="216" height="48" viewBox="0 0 216 48" fill="none" xmlns="http://www.w3.org/2000/svg">
<path d="M16.752 24.332C18.504 24.548 19.8 25.112 20.64 26.024C21.504 26.912 21.936 28.016 21.936 29.336C21.936 30.656 21.444 31.904 20.46 33.08C19.5 34.256 18.264 35.168 16.752 35.816C16.08 36.08 15.192 36.272 14.088 36.392C13.008 36.512 11.892 36.572 10.74 36.572C8.81998 36.572 6.85198 36.392 4.83598 36.032C4.47598 35.96 4.09198 35.78 3.68398 35.492C3.29998 35.204 3.10798 34.784 3.10798 34.232C3.08398 32.024 2.99998 28.952 2.85598 25.016L2.81998 23.036C2.72398 19.964 2.67598 17.552 2.67598 15.8C2.67598 15.488 2.85598 15.128 3.21598 14.72C3.59998 14.288 4.05598 14.048 4.58398 14C4.89598 14 5.19598 13.988 5.48398 13.964C8.19598 13.7 10.008 13.568 10.92 13.568C12.72 13.568 14.304 13.748 15.672 14.108C17.064 14.444 18.216 15.068 19.128 15.98C19.464 16.364 19.74 16.856 19.956 17.456C20.172 18.032 20.28 18.596 20.28 19.148C20.304 20.324 19.992 21.404 19.344 22.388C18.72 23.372 17.856 24.02 16.752 24.332ZM11.136 16.628C10.32 16.628 9.46798 16.676 8.57998 16.772C7.71598 16.868 6.98398 16.988 6.38398 17.132L6.59998 23.936L7.89598 23.9C9.98398 23.684 11.52 23.504 12.504 23.36C13.128 23.216 13.74 22.94 14.34 22.532C14.94 22.1 15.432 21.656 15.816 21.2C16.224 20.72 16.428 20.36 16.428 20.12C16.428 19.76 16.356 19.4 16.212 19.04C16.068 18.656 15.912 18.38 15.744 18.212C15.096 17.588 14.436 17.168 13.764 16.952C13.092 16.736 12.216 16.628 11.136 16.628ZM6.70798 33.404C7.93198 33.572 9.09598 33.656 10.2 33.656C12.624 33.656 14.532 33.344 15.924 32.72C17.34 32.072 18.048 30.848 18.048 29.048C18.048 28.328 17.508 27.728 16.428 27.248C15.348 26.768 14.184 26.528 12.936 26.528C12.096 26.528 11.028 26.624 9.73198 26.816C8.69998 26.96 7.69198 27.056 6.70798 27.104C6.75598 28.544 6.77998 29.456 6.77998 29.84C6.77998 30.584 6.76798 31.148 6.74398 31.532L6.70798 33.404ZM25.0814 24.368C24.8894 24.368 24.7094 24.296 24.5414 24.152C24.3974 23.984 24.3254 23.792 24.3254 23.576C24.3254 23.024 24.5654 22.508 25.0454 22.028C25.1894 21.956 25.4774 21.836 25.9094 21.668C26.3414 21.5 26.7254 21.416 27.0614 21.416C27.9734 21.416 28.7174 21.668 29.2934 22.172C29.8694 22.652 30.1574 23.348 30.1574 24.26C30.1574 24.524 30.1094 25.088 30.0134 25.952C29.9174 26.96 29.8694 27.74 29.8694 28.292C29.8694 29.972 30.0974 31.328 30.5534 32.36C30.7214 32.696 30.9854 32.96 31.3454 33.152C31.7054 33.344 32.0294 33.44 32.3174 33.44C33.0134 33.44 33.5774 33.32 34.0094 33.08C34.4414 32.84 34.9094 32.456 35.4134 31.928C35.9174 31.4 36.2414 30.8 36.3854 30.128C36.5534 29.456 36.6734 28.532 36.7454 27.356C36.7934 26.588 36.8414 26.024 36.8894 25.664C37.0094 24.512 37.0694 23.528 37.0694 22.712C37.0694 22.184 37.2134 21.752 37.5014 21.416C37.7894 21.056 38.1854 20.876 38.6894 20.876C38.9774 20.876 39.3014 20.972 39.6614 21.164C40.0454 21.332 40.2974 21.536 40.4174 21.776C40.5614 22.016 40.6334 22.412 40.6334 22.964C40.6334 23.252 40.5974 23.528 40.5254 23.792C40.3574 24.392 40.2734 25.112 40.2734 25.952L40.3094 27.824C40.3094 29.528 40.4294 30.788 40.6694 31.604C40.7894 31.988 40.9574 32.384 41.1734 32.792C41.3894 33.176 41.5934 33.5 41.7854 33.764C42.2654 34.292 42.5774 34.664 42.7214 34.88C42.8654 35.072 42.9374 35.264 42.9374 35.456C42.9374 35.744 42.7934 36.02 42.5054 36.284C42.2414 36.524 41.9534 36.644 41.6414 36.644C40.7534 36.644 39.9854 36.344 39.3374 35.744C38.6894 35.144 38.2094 34.364 37.8974 33.404C37.0814 34.34 36.3254 35.096 35.6294 35.672C35.1494 36.008 34.5614 36.26 33.8654 36.428C33.1694 36.572 32.4734 36.644 31.7774 36.644C30.8414 36.644 29.8934 36.26 28.9334 35.492C27.9734 34.724 27.3254 33.836 26.9894 32.828C26.9654 32.78 26.8934 32.588 26.7734 32.252C26.6774 31.916 26.6294 31.412 26.6294 30.74C26.6294 29.852 26.6774 28.736 26.7734 27.392C26.8454 26.528 26.8814 25.736 26.8814 25.016C26.8814 24.8 26.7974 24.62 26.6294 24.476C26.4854 24.332 26.3174 24.26 26.1254 24.26C25.9814 24.26 25.8134 24.284 25.6214 24.332C25.4534 24.356 25.2734 24.368 25.0814 24.368ZM60.5279 13.964C60.5279 14.204 60.4679 14.864 60.3479 15.944C60.0839 18.584 59.9519 21.26 59.9519 23.972C59.9519 26.348 59.9879 28.16 60.0599 29.408C60.1319 30.656 60.3119 31.616 60.5999 32.288C60.8879 32.936 61.3319 33.26 61.9319 33.26C63.0839 33.26 63.6599 33.644 63.6599 34.412C63.6599 34.916 63.4079 35.348 62.9039 35.708C62.3999 36.044 61.8479 36.212 61.2479 36.212C60.5279 36.212 59.8559 36.044 59.2319 35.708C58.6079 35.372 58.1159 34.856 57.7559 34.16C57.2519 34.904 56.5199 35.504 55.5599 35.96C54.6239 36.392 53.7119 36.608 52.8239 36.608C51.4559 36.608 50.2439 36.32 49.1879 35.744C48.1319 35.168 47.3159 34.388 46.7399 33.404C46.1639 32.396 45.8759 31.292 45.8759 30.092C45.8759 28.94 46.0079 27.836 46.2719 26.78C46.5599 25.7 46.9439 24.812 47.4239 24.116C48.0719 23.204 48.9359 22.484 50.0159 21.956C51.1199 21.404 52.1999 21.128 53.2559 21.128C53.9039 21.128 54.5159 21.26 55.0919 21.524C55.6679 21.764 56.1719 22.064 56.6039 22.424C56.6039 20.816 56.5919 19.808 56.5679 19.4V18.644C56.5679 16.412 56.7119 14.78 56.9999 13.748C57.2639 12.74 57.8999 12.236 58.9079 12.236C59.4599 12.236 59.8679 12.356 60.1319 12.596C60.3959 12.836 60.5279 13.292 60.5279 13.964ZM49.4399 30.02C49.4399 31.124 49.7519 32.012 50.3759 32.684C51.0239 33.356 51.7919 33.692 52.6799 33.692C53.9519 33.692 54.8879 33.296 55.4879 32.504C56.1119 31.712 56.4239 30.692 56.4239 29.444L56.3879 25.88C55.4519 24.848 54.4799 24.332 53.4719 24.332C52.7759 24.332 52.1159 24.512 51.4919 24.872C50.8919 25.208 50.4119 25.724 50.0519 26.42C49.6439 27.212 49.4399 28.412 49.4399 30.02ZM80.3511 27.464C80.3511 28.568 80.0751 29.504 79.5231 30.272C78.9711 31.016 78.2391 31.676 77.3271 32.252C76.0791 32.924 74.6271 33.272 72.9711 33.296C72.8751 33.584 72.8271 33.884 72.8271 34.196C72.8271 34.484 72.9831 34.7 73.2951 34.844C73.6311 34.964 74.2191 35.06 75.0591 35.132C75.7551 35.18 76.5351 35.336 77.3991 35.6C78.2871 35.84 78.9831 36.116 79.4871 36.428C80.1111 36.884 80.5431 37.376 80.7831 37.904C81.0471 38.432 81.1791 39.092 81.1791 39.884C81.1791 40.916 80.6991 41.78 79.7391 42.476C78.8031 43.196 77.6991 43.724 76.4271 44.06C75.1551 44.396 74.0391 44.564 73.0791 44.564C71.9271 44.564 70.9431 44.42 70.1271 44.132C69.3351 43.868 68.5791 43.496 67.8591 43.016C67.3551 42.656 66.9591 42.2 66.6711 41.648C66.3831 41.096 66.2391 40.52 66.2391 39.92C66.2391 39.32 66.4311 38.744 66.8151 38.192C67.2231 37.64 67.7151 37.16 68.2911 36.752C68.8671 36.368 69.4071 36.104 69.9111 35.96C69.7191 35.72 69.5751 35.516 69.4791 35.348C69.4071 35.156 69.3711 34.94 69.3711 34.7C69.3711 33.884 69.5751 33.2 69.9831 32.648C68.8311 32.264 67.9191 31.58 67.2471 30.596C66.5991 29.612 66.2751 28.46 66.2751 27.14C66.2751 26.276 66.4791 25.496 66.8871 24.8C67.2951 24.08 67.8591 23.396 68.5791 22.748C69.8031 21.644 71.4951 21.092 73.6551 21.092C73.9431 21.092 74.3391 21.14 74.8431 21.236C75.3471 21.332 75.8391 21.464 76.3191 21.632C77.0871 21.296 77.9871 20.948 79.0191 20.588C80.0511 20.228 80.7471 20.048 81.1071 20.048C81.6591 20.048 82.0671 20.144 82.3311 20.336C82.6191 20.504 82.7631 20.888 82.7631 21.488C82.7631 22.04 82.4391 22.436 81.7911 22.676C81.1671 22.916 80.2191 23.144 78.9471 23.36C79.8831 24.488 80.3511 25.856 80.3511 27.464ZM72.8631 30.344C74.2551 30.344 75.2631 30.056 75.8871 29.48C76.5351 28.904 76.8591 28.04 76.8591 26.888C76.8591 24.992 75.7431 24.044 73.5111 24.044C72.6471 24.044 71.9631 24.14 71.4591 24.332C70.9791 24.524 70.5831 24.848 70.2711 25.304C69.8391 25.88 69.6231 26.66 69.6231 27.644C69.6231 28.412 69.9351 29.06 70.5591 29.588C71.2071 30.092 71.9751 30.344 72.8631 30.344ZM69.6231 40.172C69.6231 40.58 69.9951 40.928 70.7391 41.216C71.5071 41.528 72.3231 41.684 73.1871 41.684C74.1471 41.684 75.1311 41.504 76.1391 41.144C77.1711 40.808 77.6871 40.352 77.6871 39.776C77.6871 38.936 76.9431 38.396 75.4551 38.156C74.9271 38.06 74.1591 37.88 73.1511 37.616C73.0311 37.592 72.8871 37.556 72.7191 37.508C72.5751 37.46 72.4191 37.412 72.2511 37.364C71.7231 37.556 71.1471 37.952 70.5231 38.552C69.9231 39.176 69.6231 39.716 69.6231 40.172ZM84.9484 28.256C84.9484 26.792 85.2724 25.58 85.9204 24.62C86.5684 23.636 87.4684 22.712 88.6204 21.848C88.9564 21.608 89.5204 21.404 90.3124 21.236C91.1044 21.044 91.8004 20.948 92.4004 20.948C93.1204 20.948 93.8764 21.104 94.6684 21.416C95.4844 21.704 96.1444 22.04 96.6484 22.424C97.5364 23.072 98.1484 23.828 98.4844 24.692C98.8204 25.532 98.9884 26.54 98.9884 27.716C98.9884 28.22 98.7004 28.712 98.1244 29.192C97.5724 29.648 96.9724 29.876 96.3244 29.876L94.9564 29.84C94.2604 29.84 93.2644 29.864 91.9684 29.912L91.2124 29.948C90.6844 29.996 90.2884 30.02 90.0244 30.02C89.6404 30.02 89.1124 29.972 88.4404 29.876C88.5364 31.004 88.9564 31.892 89.7004 32.54C90.4444 33.164 91.2484 33.476 92.1124 33.476C93.6244 33.476 94.6804 33.176 95.2804 32.576C95.7844 32.216 96.1204 31.988 96.2884 31.892C96.4564 31.796 96.7204 31.748 97.0804 31.748C97.4644 31.748 97.8004 31.928 98.0884 32.288C98.3764 32.648 98.5204 33.008 98.5204 33.368C98.5204 33.776 98.2684 34.196 97.7644 34.628C97.2844 35.036 96.6244 35.468 95.7844 35.924C95.3284 36.116 94.7044 36.284 93.9124 36.428C93.1204 36.572 92.4604 36.644 91.9324 36.644C91.0924 36.644 90.1564 36.404 89.1244 35.924C88.0924 35.42 87.3244 34.868 86.8204 34.268C86.3164 33.668 85.8724 32.816 85.4884 31.712C85.1284 30.608 84.9484 29.456 84.9484 28.256ZM92.1124 27.284C93.8164 27.284 95.0644 27.224 95.8564 27.104C95.8084 26.408 95.5924 25.844 95.2084 25.412C94.8244 24.956 94.2964 24.572 93.6244 24.26C93.4084 24.164 93.2164 24.092 93.0484 24.044C92.8804 23.996 92.6884 23.972 92.4724 23.972C91.3684 23.972 90.4324 24.272 89.6644 24.872C88.9204 25.472 88.4764 26.24 88.3324 27.176C89.5324 27.248 90.7924 27.284 92.1124 27.284ZM102.966 24.044C102.63 23.996 102.354 23.852 102.138 23.612C101.946 23.372 101.85 23.084 101.85 22.748C101.85 22.58 101.886 22.4 101.958 22.208C102.054 22.016 102.186 21.848 102.354 21.704C102.666 21.44 103.086 21.188 103.614 20.948C104.166 20.732 104.562 20.468 104.802 20.156C105.042 19.844 105.162 19.256 105.162 18.392C105.162 18.032 105.138 17.72 105.09 17.456C105.066 17.192 105.054 16.988 105.054 16.844C105.054 16.316 105.246 15.92 105.63 15.656C106.014 15.392 106.458 15.26 106.962 15.26C107.586 15.26 108.006 15.416 108.222 15.728C108.462 16.04 108.582 16.616 108.582 17.456C108.582 18.272 108.546 18.98 108.474 19.58C108.402 20.156 108.246 20.672 108.006 21.128C108.342 21.128 108.894 21.104 109.662 21.056C110.718 21.008 111.45 20.984 111.858 20.984C112.266 20.984 112.626 21.092 112.938 21.308C113.25 21.5 113.406 21.776 113.406 22.136C113.406 22.64 113.298 23.012 113.082 23.252C112.866 23.492 112.554 23.648 112.146 23.72C111.162 23.984 109.77 24.14 107.97 24.188C107.922 25.124 107.898 26.144 107.898 27.248C107.898 29.096 108.006 30.512 108.222 31.496C108.366 32.264 108.606 32.828 108.942 33.188C109.302 33.524 109.83 33.692 110.526 33.692C110.886 33.692 111.174 33.644 111.39 33.548C111.63 33.452 111.762 33.392 111.786 33.368C112.074 33.2 112.338 33.116 112.578 33.116C112.914 33.116 113.154 33.224 113.298 33.44C113.466 33.656 113.55 33.944 113.55 34.304C113.55 34.976 113.19 35.54 112.47 35.996C111.75 36.428 110.826 36.644 109.698 36.644C108.426 36.644 107.346 36.272 106.458 35.528C105.594 34.76 105.078 33.752 104.91 32.504C104.67 31.376 104.55 29.792 104.55 27.752C104.55 26.864 104.598 25.676 104.694 24.188L102.966 24.044ZM136.333 29.228C136.333 30.572 135.817 31.856 134.785 33.08C133.777 34.28 132.493 35.228 130.933 35.924C130.261 36.14 129.409 36.32 128.377 36.464C127.345 36.584 126.301 36.656 125.245 36.68C123.181 36.68 121.261 36.392 119.485 35.816C119.173 35.744 118.813 35.54 118.405 35.204C117.997 34.868 117.805 34.424 117.829 33.872V32.648C117.829 31.304 117.793 30.008 117.721 28.76C117.673 27.128 117.649 25.88 117.649 25.016L117.613 20.948C117.613 19.508 117.661 18.056 117.757 16.592C117.781 15.848 118.057 15.224 118.585 14.72C119.137 14.192 119.821 13.868 120.637 13.748C120.949 13.724 121.513 13.712 122.329 13.712L125.785 13.748C127.441 13.748 128.917 13.964 130.213 14.396C131.509 14.828 132.625 15.524 133.561 16.484C133.873 16.844 134.125 17.324 134.317 17.924C134.509 18.5 134.605 19.064 134.605 19.616C134.533 21.56 133.417 23.144 131.257 24.368C132.985 24.584 134.257 25.124 135.073 25.988C135.913 26.852 136.333 27.932 136.333 29.228ZM122.725 23.504C122.965 23.48 123.349 23.468 123.877 23.468H125.497C126.217 23.468 126.721 23.444 127.009 23.396C129.457 22.844 130.681 21.872 130.681 20.48C130.681 20.12 130.621 19.736 130.501 19.328C130.405 18.92 130.273 18.632 130.105 18.464C129.481 17.864 128.893 17.48 128.341 17.312C127.789 17.12 126.973 17.024 125.893 17.024C123.805 17.024 122.305 17.132 121.393 17.348L121.429 23.54L122.725 23.504ZM124.381 33.656C126.877 33.656 128.833 33.344 130.249 32.72C131.689 32.096 132.409 30.872 132.409 29.048C132.409 28.328 131.881 27.74 130.825 27.284C129.769 26.804 128.617 26.564 127.369 26.564C125.833 26.564 124.753 26.6 124.129 26.672C123.601 26.72 123.241 26.744 123.049 26.744C122.689 26.744 122.437 26.732 122.293 26.708C122.173 26.708 122.029 26.708 121.861 26.708C121.717 26.684 121.561 26.684 121.393 26.708L121.429 27.896C121.453 28.184 121.489 28.976 121.537 30.272C121.609 31.544 121.621 32.444 121.573 32.972C122.125 33.212 122.605 33.392 123.013 33.512C123.421 33.608 123.877 33.656 124.381 33.656ZM139.78 24.368C139.588 24.368 139.42 24.296 139.276 24.152C139.132 23.984 139.06 23.792 139.06 23.576C139.06 22.88 139.288 22.352 139.744 21.992C140.2 21.608 140.764 21.416 141.436 21.416C142.372 21.416 143.176 21.668 143.848 22.172C144.544 22.652 144.892 23.348 144.892 24.26C144.892 24.5 144.844 25.412 144.748 26.996C144.652 28.82 144.604 30.032 144.604 30.632C144.604 31.472 144.76 32.156 145.072 32.684C145.408 33.188 145.924 33.44 146.62 33.44C147.964 33.44 148.996 32.696 149.716 31.208C150.46 29.696 150.952 27.848 151.192 25.664C151.288 24.704 151.432 23.696 151.624 22.64C151.72 22.064 151.852 21.644 152.02 21.38C152.188 21.116 152.512 20.984 152.992 20.984C153.304 20.984 153.664 21.056 154.072 21.2C154.504 21.344 154.78 21.536 154.9 21.776C155.044 22.136 155.116 22.532 155.116 22.964C155.116 23.564 155.032 24.344 154.864 25.304C154.672 26.264 154.54 27.308 154.468 28.436C154.42 29.444 154.576 30.5 154.936 31.604C155.296 32.708 155.812 33.428 156.484 33.764C157.252 34.148 157.636 34.496 157.636 34.808C157.636 35.312 157.456 35.708 157.096 35.996C156.736 36.284 156.388 36.428 156.052 36.428C155.164 36.428 154.36 36.104 153.64 35.456C152.944 34.808 152.44 34.004 152.128 33.044C151.624 33.812 151.132 34.448 150.652 34.952C150.196 35.432 149.608 35.84 148.888 36.176C148.168 36.488 147.28 36.644 146.224 36.644C144.976 36.644 143.836 36.2 142.804 35.312C141.796 34.424 141.292 32.9 141.292 30.74C141.292 30.14 141.304 29.504 141.328 28.832C141.376 28.16 141.4 27.68 141.4 27.392C141.472 26.528 141.508 25.736 141.508 25.016C141.508 24.8 141.424 24.62 141.256 24.476C141.112 24.332 140.944 24.26 140.752 24.26C140.608 24.26 140.44 24.284 140.248 24.332C140.08 24.356 139.924 24.368 139.78 24.368ZM175.043 13.964C175.043 14.204 174.983 14.864 174.863 15.944C174.599 18.584 174.467 21.26 174.467 23.972C174.467 26.348 174.503 28.16 174.575 29.408C174.647 30.656 174.827 31.616 175.115 32.288C175.403 32.936 175.847 33.26 176.447 33.26C177.599 33.26 178.175 33.644 178.175 34.412C178.175 34.916 177.923 35.348 177.419 35.708C176.915 36.044 176.363 36.212 175.763 36.212C175.043 36.212 174.371 36.044 173.747 35.708C173.123 35.372 172.631 34.856 172.271 34.16C171.767 34.904 171.035 35.504 170.075 35.96C169.139 36.392 168.227 36.608 167.339 36.608C165.971 36.608 164.759 36.32 163.703 35.744C162.647 35.168 161.831 34.388 161.255 33.404C160.679 32.396 160.391 31.292 160.391 30.092C160.391 28.94 160.523 27.836 160.787 26.78C161.075 25.7 161.459 24.812 161.939 24.116C162.587 23.204 163.451 22.484 164.531 21.956C165.635 21.404 166.715 21.128 167.771 21.128C168.419 21.128 169.031 21.26 169.607 21.524C170.183 21.764 170.687 22.064 171.119 22.424C171.119 20.816 171.107 19.808 171.083 19.4V18.644C171.083 16.412 171.227 14.78 171.515 13.748C171.779 12.74 172.415 12.236 173.423 12.236C173.975 12.236 174.383 12.356 174.647 12.596C174.911 12.836 175.043 13.292 175.043 13.964ZM163.955 30.02C163.955 31.124 164.267 32.012 164.891 32.684C165.539 33.356 166.307 33.692 167.195 33.692C168.467 33.692 169.403 33.296 170.003 32.504C170.627 31.712 170.939 30.692 170.939 29.444L170.903 25.88C169.967 24.848 168.995 24.332 167.987 24.332C167.291 24.332 166.631 24.512 166.007 24.872C165.407 25.208 164.927 25.724 164.567 26.42C164.159 27.212 163.955 28.412 163.955 30.02ZM195.947 36.32C195.443 36.32 194.963 36.176 194.507 35.888C194.075 35.576 193.691 35.252 193.355 34.916C193.019 34.556 192.791 34.316 192.671 34.196C192.167 34.916 191.435 35.504 190.475 35.96C189.515 36.416 188.591 36.644 187.703 36.644C186.335 36.644 185.123 36.356 184.067 35.78C183.011 35.204 182.195 34.424 181.619 33.44C181.043 32.432 180.755 31.316 180.755 30.092C180.755 28.94 180.887 27.836 181.151 26.78C181.439 25.7 181.823 24.8 182.303 24.08C182.951 23.168 183.815 22.448 184.895 21.92C185.999 21.392 187.091 21.128 188.171 21.128C188.819 21.128 189.431 21.248 190.007 21.488C190.583 21.728 191.087 22.028 191.519 22.388C191.519 20.804 191.507 19.808 191.483 19.4V18.608C191.483 16.352 191.627 14.708 191.915 13.676C192.179 12.668 192.827 12.164 193.859 12.164C194.411 12.164 194.819 12.284 195.083 12.524C195.347 12.764 195.479 13.22 195.479 13.892C195.479 14.132 195.419 14.792 195.299 15.872C195.035 18.56 194.903 21.248 194.903 23.936C194.903 26.192 194.939 27.872 195.011 28.976C195.107 30.056 195.287 30.92 195.551 31.568C195.839 32.216 196.283 32.792 196.883 33.296C197.243 33.584 197.495 33.824 197.639 34.016C197.807 34.208 197.891 34.46 197.891 34.772C197.891 35.156 197.699 35.516 197.315 35.852C196.931 36.164 196.475 36.32 195.947 36.32ZM187.595 33.728C188.867 33.728 189.803 33.332 190.403 32.54C191.027 31.724 191.339 30.692 191.339 29.444L191.303 27.428C191.279 27.044 191.267 26.528 191.267 25.88C190.379 24.824 189.419 24.296 188.387 24.296C187.691 24.296 187.031 24.476 186.407 24.836C185.807 25.196 185.315 25.724 184.931 26.42C184.523 27.212 184.319 28.412 184.319 30.02C184.319 31.124 184.643 32.024 185.291 32.72C185.939 33.392 186.707 33.728 187.595 33.728ZM204.876 43.844C203.988 43.844 203.232 43.688 202.608 43.376C201.984 43.088 201.516 42.728 201.204 42.296C200.916 41.888 200.772 41.528 200.772 41.216C200.772 40.784 200.928 40.4 201.24 40.064C201.552 39.752 201.9 39.596 202.284 39.596C202.5 39.596 202.704 39.668 202.896 39.812C203.112 39.956 203.244 40.04 203.292 40.064C203.412 40.16 203.568 40.304 203.76 40.496C203.952 40.712 204.144 40.82 204.336 40.82C204.888 40.82 205.332 40.472 205.668 39.776C206.004 39.08 206.328 37.952 206.64 36.392C205.056 33.776 203.556 31.112 202.14 28.4C200.724 25.688 200.016 23.852 200.016 22.892C200.016 22.292 200.232 21.848 200.664 21.56C201.096 21.272 201.588 21.128 202.14 21.128C202.548 21.128 202.872 21.212 203.112 21.38C203.352 21.524 203.544 21.8 203.688 22.208C204.36 24.248 205.044 26.072 205.74 27.68C206.436 29.264 207.24 30.86 208.152 32.468C208.584 31.508 209.1 29.936 209.7 27.752C210.06 26.48 210.372 25.448 210.636 24.656C210.9 23.84 211.2 23.096 211.536 22.424C211.752 21.992 212.016 21.644 212.328 21.38C212.664 21.116 213.024 20.984 213.408 20.984C213.84 20.984 214.284 21.14 214.74 21.452C215.22 21.74 215.46 22.088 215.46 22.496C215.46 22.616 215.376 22.904 215.208 23.36C214.272 25.448 213.444 27.464 212.724 29.408C212.004 31.328 211.332 33.44 210.708 35.744C210.324 36.968 209.916 38.156 209.484 39.308C209.052 40.484 208.752 41.216 208.584 41.504C208.08 42.176 207.54 42.728 206.964 43.16C206.388 43.616 205.692 43.844 204.876 43.844Z" fill="#3A4156"/>
</svg>
